<svg width="243" height="280" viewBox="0 0 243 280" fill="none" xmlns="http://www.w3.org/2000/svg">
<path fill-rule="evenodd" clip-rule="evenodd" d="M222.767 0.5354H242.232V119.489L214.116 95.6982V48.1168C211.232 50.2796 202.004 55.0377 188.162 56.768C174.321 58.4982 100.209 57.4889 64.8833 56.768C51.9066 60.3726 27.2508 77.9633 32.4415 119.489C36.4746 116.464 40.0376 113.557 43.3224 110.877C54.1296 102.058 61.9243 95.6982 73.5349 95.6982H181.674C201.86 100.745 242.232 121.219 242.232 162.745C242.232 214.652 211.953 238.442 188.162 247.094C169.13 248.824 92.2791 247.814 56.2326 247.094C46.1395 249.977 25.5209 260.503 23.7907 279.535H0V162.745L28.1163 180.047V231.954C31.7207 228.349 44.1203 221.14 64.8833 221.14H188.162C200.418 211.768 222.767 186.968 214.116 162.745C196.814 176.587 179.512 182.931 173.023 184.373H60.5581C40.3721 175.001 6.48837 154.094 4.32558 119.489C0 78.3959 21.6279 28.6517 64.8833 28.6517H196.814C197.954 28.1955 199.047 27.7875 200.098 27.3945C209.02 24.0615 215.028 21.8172 222.767 0.5354ZM60.4317 142.581C67.2223 135.642 82.8129 119.709 185.186 125.977C192.107 127.707 202.488 132.466 206.814 134.628C204.651 141.117 192.107 154.093 159.232 154.093C151.466 154.093 144.008 154.248 136.845 154.396C106.108 155.033 80.7922 155.558 59.7438 143.28C59.9645 143.059 60.1926 142.826 60.4317 142.581Z" fill="#FF2C3B" fill-opacity="0.17"/>
</svg>
