<svg width="526" height="22" viewBox="0 0 526 22" fill="none" xmlns="http://www.w3.org/2000/svg">
<path d="M2 20L18.3125 8.5C28.0943 1.60403 41.1557 1.60402 50.9375 8.5V8.5C60.7193 15.396 73.7807 15.396 83.5625 8.5V8.5C93.3443 1.60402 106.406 1.60402 116.188 8.5V8.5C125.969 15.396 139.031 15.396 148.812 8.5V8.5C158.594 1.60402 171.656 1.60402 181.438 8.5V8.5C191.219 15.396 204.281 15.396 214.062 8.5V8.5C223.844 1.60402 236.906 1.60402 246.688 8.5V8.5C256.469 15.396 269.531 15.396 279.312 8.5V8.5C289.094 1.60402 302.156 1.60402 311.938 8.5V8.5C321.719 15.396 334.92 15.2978 344.702 8.40186V8.40186C354.318 1.62259 367.295 1.52611 376.911 8.30538L377.647 8.82406C387.093 15.4833 399.759 15.2803 408.986 8.32168V8.32168C417.985 1.53616 430.283 1.15822 439.68 7.3784L442.551 9.27852C452.296 15.7281 465.018 15.4593 474.481 8.60396V8.60396C484.086 1.64625 497.029 1.48273 506.807 8.19555L524 20" stroke="#FE3644" stroke-width="4" stroke-linecap="round"/>
</svg>
