<svg width="782" height="898" viewBox="0 0 782 898" fill="none" xmlns="http://www.w3.org/2000/svg">
<path d="M782 0.153564H719.161C691.231 76.6419 670.287 76.6419 635.376 90.5489H209.463C69.8215 90.5489 0 250.479 13.9643 382.595C20.9465 493.851 130.334 561.068 195.5 591.2H558.572C579.519 586.564 635.376 566.168 691.232 521.665C719.16 599.544 647.011 679.278 607.446 709.409H209.463C142.434 709.409 102.404 732.588 90.768 744.177V577.293L0 521.665V897.154H76.8037C82.3894 835.963 148.953 802.123 181.536 792.851C297.905 795.169 546.004 798.414 607.446 792.851C684.249 765.037 782 688.549 782 521.665C782 388.158 651.667 322.332 586.501 306.107H237.393C188.518 306.107 160.588 340.874 104.731 382.595C87.9739 249.088 167.57 192.533 209.463 180.944C323.505 183.262 562.76 186.507 607.446 180.944C652.132 175.381 681.922 160.084 691.232 153.13V306.107L782 382.595V0.153564Z" fill="#FF606B" fill-opacity="0.06"/>
</svg>
